<mxfile host="app.diagrams.net" modified="2024-06-11T00:13:17.165Z" agent="Mozilla/5.0 (X11; Linux x86_64) AppleWebKit/537.36 (KHTML, like Gecko) Chrome/125.0.0.0 Safari/537.36" version="24.5.2" etag="DsuLXDBbA5TsPy2hJVo6" type="github">
  <diagram name="Page-1" id="-k0zFcd0xHonmSwAibVC">
    <mxGraphModel>
      <root>
        <mxCell id="0" />
        <mxCell id="1" parent="0" />
      </root>
    </mxGraphModel>
  </diagram>
</mxfile>
